<?xml version="1.0" encoding="UTF-8"?>
<svg width="256" height="256" viewBox="0 0 24 24" xmlns="http://www.w3.org/2000/svg">
  <defs>
    <linearGradient id="g" x1="0" y1="0" x2="1" y2="1">
      <stop offset="0%" stop-color="#ffd6ea"/>
      <stop offset="100%" stop-color="#ee9cb3"/>
    </linearGradient>
  </defs>
  <rect x="0" y="0" width="24" height="24" rx="5" fill="#fff"/>
  <path fill="url(#g)" d="M14.016 3.984 20.016 10.02l-5.297 5.3-6-6 5.297-5.334Zm-6.703 6.75 6 6c-.422.469-.844.984-1.266 1.547-.422.563-.75 1.078-.984 1.547-.234.422-.516.75-.844.984-.328.188-.703.328-1.125.422-.375.047-.797.094-1.266.141-.469.047-.938.141-1.406.281-.469.094-.891.281-1.266.563-.375.281-.656.75-.844 1.406-.093.422-.28.703-.563.844-.281.094-.61.07-.984-.07-.562-.234-.844-.61-.844-1.125 0-.094.047-.281.141-.563.093-.375.187-.75.281-1.125.141-.469.234-.938.281-1.406.094-.469.141-.891.188-1.266.094-.422.234-.797.422-1.125.234-.328.563-.61.984-.844.469-.234.984-.563 1.547-.984.563-.469 1.078-.891 1.547-1.266Z"/>
</svg>
